<svg xmlns="http://www.w3.org/2000/svg" width="400" height="400" viewBox="0 0 400 400">
    <defs>
        <linearGradient id="bg" x1="0%" y1="0%" x2="100%" y2="100%">
            <stop offset="0%" style="stop-color:#f8f9fa"/>
            <stop offset="100%" style="stop-color:#e5e7eb"/>
        </linearGradient>
        <linearGradient id="lens" x1="0%" y1="0%" x2="100%" y2="100%">
            <stop offset="0%" style="stop-color:#1e3a5f"/>
            <stop offset="100%" style="stop-color:#0f172a"/>
        </linearGradient>
    </defs>
    <rect width="400" height="400" fill="url(#bg)"/>
    <!-- Frame -->
    <path d="M80 180 Q80 150 110 150 L180 150 Q200 150 200 170 Q200 150 220 150 L290 150 Q320 150 320 180 L320 220 Q320 260 280 260 L120 260 Q80 260 80 220 Z" fill="#1a1a1a"/>
    <!-- Left lens -->
    <ellipse cx="140" cy="200" rx="50" ry="45" fill="url(#lens)"/>
    <!-- Right lens -->
    <ellipse cx="260" cy="200" rx="50" ry="45" fill="url(#lens)"/>
    <!-- Bridge -->
    <path d="M190 195 Q200 185 210 195" fill="none" stroke="#1a1a1a" stroke-width="4"/>
    <!-- Temples -->
    <line x1="80" y1="170" x2="50" y2="165" stroke="#1a1a1a" stroke-width="6"/>
    <line x1="320" y1="170" x2="350" y2="165" stroke="#1a1a1a" stroke-width="6"/>
    <text x="200" y="360" text-anchor="middle" font-family="Inter, sans-serif" font-size="14" fill="#666">Óculos de Sol</text>
</svg>
